<?xml version="1.0" encoding="utf-8"?>
<!-- Generator: Adobe Illustrator 19.0.0, SVG Export Plug-In . SVG Version: 6.00 Build 0)  -->
<svg version="1.1" id="Capa_1" xmlns="http://www.w3.org/2000/svg" xmlns:xlink="http://www.w3.org/1999/xlink" x="0px" y="0px"
	 viewBox="-223 25 512 512" style="enable-background:new -223 25 512 512;" xml:space="preserve">
<style type="text/css">
	.st0{fill:#FFFFFF;}
</style>
<g>
	<path class="st0" d="M33,25c-141.4,0-256,114.6-256,256s114.6,256,256,256s256-114.6,256-256S174.4,25,33,25z M33,497
		c-119.3,0-216-96.7-216-216S-86.3,65,33,65s216,96.7,216,216S152.3,497,33,497z"/>
	<path class="st0" d="M33,201H-95v160H33h128V201H33z M33,217h89.7L33,280.8L-56.7,217H33z M-79,221.5l54.5,36.9L-79,317.8V221.5z
		 M33,345h-92.4l45.6-79.4L33,297.3l46.8-31.7l45.6,79.4H33z M145,317.8l-54.5-59.4l54.5-36.9V317.8z"/>
</g>
</svg>
