<?xml version="1.0" encoding="utf-8"?>
<!-- Generator: Adobe Illustrator 19.0.0, SVG Export Plug-In . SVG Version: 6.00 Build 0)  -->
<svg version="1.1" id="Capa_1" xmlns="http://www.w3.org/2000/svg" xmlns:xlink="http://www.w3.org/1999/xlink" x="0px" y="0px"
	 viewBox="-223 25 512 512" style="enable-background:new -223 25 512 512;" xml:space="preserve">
<style type="text/css">
	.st0{fill:#FFFFFF;}
</style>
<g>
	<path class="st0" d="M33,25c-141.4,0-256,114.6-256,256s114.6,256,256,256s256-114.6,256-256S174.4,25,33,25z M33,497
		c-119.3,0-216-96.7-216-216S-86.3,65,33,65s216,96.7,216,216S152.3,497,33,497z"/>
	<path class="st0" d="M93.8,241.8H49.2v-32.5c0-10,10.3-12.3,15.1-12.3c4.8,0,28.8,0,28.8,0v-43.9l-33-0.2
		c-45,0-55.3,32.7-55.3,53.7v35.1h-32.6V287H4.9c0,58,0,122,0,122h44.3c0,0,0-64.6,0-122h37.7L93.8,241.8z"/>
</g>
</svg>
