<?xml version="1.0" encoding="utf-8"?>
<!-- Generator: Adobe Illustrator 19.0.0, SVG Export Plug-In . SVG Version: 6.00 Build 0)  -->
<svg version="1.1" id="Capa_1" xmlns="http://www.w3.org/2000/svg" xmlns:xlink="http://www.w3.org/1999/xlink" x="0px" y="0px"
	 viewBox="-223 25 512 512" style="enable-background:new -223 25 512 512;" xml:space="preserve">
<style type="text/css">
	.st0{fill:#FFFFFF;}
</style>
<g>
	<path class="st0" d="M33,25c-141.4,0-256,114.6-256,256s114.6,256,256,256s256-114.6,256-256S174.4,25,33,25z M185,433
		c-19.8,19.8-42.8,35.3-68.4,46.1c-6.5,2.8-13.1,5.2-19.8,7.2V448c0-20.2-6.9-35-20.8-44.5c8.7-0.8,16.6-2,23.9-3.5s14.9-3.7,23-6.5
		c8.1-2.8,15.3-6.2,21.8-10.1c6.4-3.9,12.6-9,18.5-15.3c5.9-6.3,10.9-13.3,14.9-21.3s7.2-17.4,9.5-28.5c2.3-11.1,3.5-23.3,3.5-36.6
		c0-25.8-8.4-47.8-25.3-66c7.7-20,6.8-41.8-2.5-65.3l-6.3-0.8c-4.3-0.5-12.1,1.3-23.4,5.5s-23.9,11-37.9,20.5
		c-19.8-5.5-40.4-8.3-61.7-8.3c-21.5,0-42,2.8-61.5,8.3c-8.8-6-17.2-11-25.1-14.9s-14.3-6.6-19-8s-9.2-2.3-13.3-2.6
		s-6.7-0.4-7.9-0.3s-2,0.3-2.5,0.5c-9.3,23.7-10.2,45.4-2.5,65.3c-16.8,18.2-25.3,40.2-25.3,66c0,13.3,1.2,25.5,3.5,36.6
		s5.5,20.6,9.5,28.5s9,15,14.9,21.3c5.9,6.3,12.1,11.3,18.5,15.3s13.7,7.3,21.8,10.1s15.8,5,23,6.5s15.2,2.7,23.9,3.5
		c-13.7,9.3-20.5,24.2-20.5,44.5v39.1c-7.5-2.2-15-4.9-22.3-8c-25.6-10.8-48.6-26.3-68.4-46.1c-19.8-19.8-35.3-42.8-46.1-68.4
		C-176.3,338.2-182,310-182,281s5.7-57.2,16.9-83.7c10.8-25.6,26.3-48.6,46.1-68.4s42.8-35.3,68.4-46.1C-24.2,71.7,4,66,33,66
		s57.2,5.7,83.7,16.9c25.6,10.8,48.6,26.3,68.4,46.1c19.8,19.8,35.3,42.8,46.1,68.4C242.3,223.8,248,252,248,281
		s-5.7,57.2-16.9,83.7C220.3,390.3,204.8,413.3,185,433z"/>
</g>
</svg>
