<?xml version="1.0" encoding="utf-8"?>
<!-- Generator: Adobe Illustrator 19.0.0, SVG Export Plug-In . SVG Version: 6.00 Build 0)  -->
<svg version="1.1" xmlns="http://www.w3.org/2000/svg" xmlns:xlink="http://www.w3.org/1999/xlink" x="0px" y="0px"
	 viewBox="0 0 202 104" style="enable-background:new 0 0 202 104;" xml:space="preserve">
<style type="text/css">
	.st0{fill:#FFFFFF;stroke:#FFFFFF;stroke-miterlimit:10;}
	.st1{fill:#FFFFFF;}
</style>
<g id="Layer_2">
</g>
<g id="Layer_1">
	<path id="XMLID_6_" class="st0" d="M188.8,72.1c-6.1-8-19.1-9.4-26.7-2.8c5.2-7.1,3.9-18.2-2.9-23.8c-6.7-5.7-17.9-5-24,1.3
		c-0.8-3.9-4.2-7.1-8.2-7.6c-3.9-0.5-8.1,1.6-9.9,5.1c3.6-13.3-5.7-27.9-18.6-32.9c-12.9-4.9-27.9-1.5-39.3,6.2
		C51.8,22.7,45,31.9,48.6,40.2c-2.8-0.7-6.1-0.6-8.4,1.2s-3,5.7-0.8,7.7C29.6,46.9,18.5,50.3,12,58C5.5,65.7,4.1,77.5,9,86.4
		s16,13.9,25.8,11.3l149.4,0.8C192.6,93,194.8,80.1,188.8,72.1z M92.5,92.3c-1.5,0.4-2-0.7-2-1.5v-8.9c0-3-1.2-5-2.3-6.1
		c7.2-0.9,14.7-3.5,14.7-16c0-3.5-1.1-6.5-3.3-8.7c0.4-0.9,1.5-4.1-0.2-8.7c0,0-2.6-0.9-8.9,3.3c-2.6-0.7-5.4-1.1-8.2-1.1
		s-5.6,0.4-8.2,1.1c-6.1-4.1-8.9-3.3-8.9-3.3c-1.7,4.6-0.7,7.8-0.2,8.7c-2,2.2-3.3,5.2-3.3,8.7c0,12.4,7.6,15.2,14.7,16
		c-1.1,0.9-2,2.2-2.2,4.3c-2,0.9-6.7,2.4-9.5-2.6c0,0-1.7-3-5-3.3c0,0-3.3,0-0.2,2c0,0,2.3,1.1,3.9,4.8c0,0,2.2,6.3,11.2,4.3V91
		c0,0.9-0.6,1.7-2.3,1.5c-13-4.3-22.4-16.5-22.4-30.8c0-18,14.5-32.5,32.5-32.5s32.6,14.5,32.3,32.3C114.6,75.8,105.5,88,92.5,92.3z
		"/>
	<g id="XMLID_1_">
		<path id="XMLID_35_" class="st1" d="M113.6,41.9c1.6,2.5,3,5.1,4.2,7.7c-1.4-1.8-2.4-3.8-2.9-6c2.8,0.6,5.4,2.1,7.2,4.3"/>
		<g id="XMLID_29_">
			<path id="XMLID_34_" class="st1" d="M112.4,42.7c1.6,2.5,3,5.1,4.2,7.7c0.9-0.5,1.7-1,2.6-1.5c-1.3-1.7-2.2-3.6-2.7-5.7
				c-0.6,0.6-1.2,1.2-1.8,1.8c2.6,0.6,4.8,1.9,6.5,3.9c1.3,1.5,3.4-0.7,2.1-2.1c-2-2.4-4.8-4-7.8-4.7c-1.1-0.2-2.1,0.7-1.8,1.8
				c0.6,2.3,1.6,4.5,3,6.4c1.2,1.5,3.4,0.3,2.6-1.5c-1.2-2.7-2.6-5.2-4.2-7.7C113.9,39.5,111.3,41,112.4,42.7L112.4,42.7z"/>
		</g>
	</g>
	<g id="XMLID_2_">
		<path id="XMLID_27_" class="st1" d="M156,70.2c3.2,1.9,6.4,4,9.3,6.3c-2.2-1.9-4.6-3.5-7.1-4.8c1.6-0.1,3.1,0.4,4.4,1.4
			c-1.7-1.8-3.5-3.4-5.4-4.9c1.7,1.8,3.7,3.4,5.8,4.8"/>
		<g id="XMLID_21_">
			<path id="XMLID_26_" class="st1" d="M155.3,71.5c3.2,1.9,6.4,4,9.3,6.3c1.3,1,3.1-1.3,1.8-2.4c-2.3-1.9-4.8-3.6-7.4-5
				c-0.3,0.9-0.5,1.9-0.8,2.8c1.4,0,2.5,0.4,3.6,1.1c1.4,1,3-1.2,1.8-2.4c-1.7-1.8-3.5-3.4-5.4-4.9c-1.5-1.2-3.5,0.7-2.1,2.1
				c1.9,1.9,3.9,3.6,6.1,5c1.6,1,3.1-1.6,1.5-2.6c-2-1.3-3.9-2.8-5.5-4.5c-0.7,0.7-1.4,1.4-2.1,2.1c1.9,1.5,3.7,3.2,5.4,4.9
				c0.6-0.8,1.2-1.6,1.8-2.4c-1.6-1.1-3.3-1.6-5.1-1.6c-1.4,0-2.1,2.1-0.8,2.8c2.5,1.3,4.7,2.7,6.8,4.5c0.6-0.8,1.2-1.6,1.8-2.4
				c-3-2.3-6.1-4.4-9.3-6.3C155.1,67.9,153.6,70.5,155.3,71.5L155.3,71.5z"/>
		</g>
	</g>
</g>
</svg>
