<?xml version="1.0" encoding="utf-8"?>
<!-- Generator: Adobe Illustrator 19.0.0, SVG Export Plug-In . SVG Version: 6.00 Build 0)  -->
<svg version="1.1" id="Capa_1" xmlns="http://www.w3.org/2000/svg" xmlns:xlink="http://www.w3.org/1999/xlink" x="0px" y="0px"
	 viewBox="-223 25 512 512" style="enable-background:new -223 25 512 512;" xml:space="preserve">
<style type="text/css">
	.st0{fill:#FFFFFF;}
</style>
<g>
	<path class="st0" d="M33,25c-141.4,0-256,114.6-256,256s114.6,256,256,256s256-114.6,256-256S174.4,25,33,25z M33,497
		c-119.3,0-216-96.7-216-216S-86.3,65,33,65s216,96.7,216,216S152.3,497,33,497z"/>
	<g>
		<g>
			<path class="st0" d="M-94.9,408.9h48v-192h-48V408.9z M97.1,216.9c-41.1,0.7-61.3,30.6-64,32v-32h-48v192h48v-112
				c0-4.1,10.1-37,48-32c20.3,1.3,31.3,28.2,32,32v112l47.8,0.2V276.2C159.2,257,149.6,217.6,97.1,216.9z M-70.9,152.9
				c-13.3,0-24,10.7-24,24s10.8,24,24,24s24-10.7,24-24S-57.7,152.9-70.9,152.9z"/>
		</g>
	</g>
</g>
</svg>
