<?xml version="1.0" encoding="utf-8"?>
<!-- Generator: Adobe Illustrator 19.0.0, SVG Export Plug-In . SVG Version: 6.00 Build 0)  -->
<svg version="1.1" xmlns="http://www.w3.org/2000/svg" xmlns:xlink="http://www.w3.org/1999/xlink" x="0px" y="0px"
	 viewBox="0 0 171 86" style="enable-background:new 0 0 171 86;" xml:space="preserve">
<style type="text/css">
	.st0{fill:#FFFFFF;}
	.st1{fill:#FFFFFF;stroke:#FFFFFF;stroke-miterlimit:10;}
</style>
<g id="Layer_1">
</g>
<g id="Layer_2">
	<path id="XMLID_8_" class="st0" d="M159.1,65.1c-1.5-5.3-6.6-9.1-12-10.3c-2.3-0.5-5.3-0.1-6.8,1.4c1.6-5.6-2.1-12.5-7.8-14.6
		c-6.5-2.4-14.2,0.6-18.7,5.8c5.4-6.8,5.3-16.9,1-24.4c-4.3-7.5-12.2-12.5-20.6-14.7c-10-2.6-21.2-1.4-29.6,4.5
		C57.1,18,52.3,27.1,52.8,36.1c-1.9-6.3-8.9-10.9-15.7-10.2c-8,0.8-14.5,7.6-16.5,15.3c-0.9,3.4-1.1,7.2,0.8,10.2
		C15.4,49,7.9,53.4,6,59.7C4,65.9,6.6,73,11.3,77.6c0.7,0.7,1.5,1.3,2.4,1.8c2,0,4,0.2,5.9,0.4c0,0,0.1-0.1,0.1-0.1l132.8-1.2
		C157.8,76.9,160.7,70.4,159.1,65.1z M72,72h-9V43h9V72z M67.4,39.2c-2.9,0-5.3-2.4-5.3-5.3c0-2.9,2.4-5.3,5.3-5.3
		c2.9,0,5.3,2.4,5.3,5.3C72.7,36.8,70.3,39.2,67.4,39.2z M106,72h-9V58.2c0-3.4,0-7.7-4.6-7.7c-4.7,0-5.4,3.7-5.4,7.5V72h-9V43h8v4
		h0.5c1.2-2,4.2-4.6,8.6-4.6c9.2,0,10.9,6.1,10.9,14V72z"/>
	<path id="XMLID_84_" class="st1" d="M50.2,31.7c0.1-0.6-0.5-1.1-0.6-1.7c-0.1-0.8,0.8-1.4,1.6-1.1c0.7,0.2,1.1,1.1,1.1,1.9
		c-0.1,0.8-0.5,1.5-1,2c-0.1,0.2-0.3,0.3-0.5,0.4c-0.7,0.1-0.9-1-0.6-1.6c0.2-0.5,0.4-1,0.9-1.3s1.1-0.3,1.5,0.1
		c0.2,0.3,0.3,0.6,0.3,1c0,0.6,0.1,1.1-0.1,1.6s-0.8,0.9-1.3,0.6c-0.6-0.3-0.6-1.1-0.6-1.7c0-0.5,0.1-1,0.5-1.2c0.4-0.2,1,0,1.2,0.5
		s0.2,1,0.2,1.4"/>
	<path id="XMLID_85_" class="st1" d="M115.3,44.7c-0.2-0.4,0-1,0.5-1.1c0.5-0.1,1,0.4,0.9,0.8c-0.1,0.8-1.1,0.9-1.9,0.9
		c-0.3-1.7,1.1-3.5,2.8-3.7c0.4-0.1,0.8,0,1.1,0.2c0.4,0.3,0.4,1,0.2,1.5c-0.2,0.6-0.5,1.2-1,1.5c-0.5,0.3-1.3,0.4-1.8,0
		c-0.7-0.6-0.5-1.8,0.2-2.4c0.7-0.6,1.7-0.7,2.6-0.8c-0.1,0.6-0.2,1.2-0.6,1.7c-0.4,0.5-1.2,0.6-1.6,0.2c-0.4-0.5,0.2-1.4,0.7-1.1"
		/>
</g>
</svg>
