<?xml version="1.0" encoding="utf-8"?>
<!-- Generator: Adobe Illustrator 19.0.0, SVG Export Plug-In . SVG Version: 6.00 Build 0)  -->
<svg version="1.1" id="Layer_1" xmlns="http://www.w3.org/2000/svg" xmlns:xlink="http://www.w3.org/1999/xlink" x="0px" y="0px"
	 viewBox="0 0 960 560" style="enable-background:new 0 0 960 560;" xml:space="preserve">
<style type="text/css">
	.st0{fill:#736787;}
</style>
<path id="XMLID_273_" class="st0" d="M0,560h960V457.7l-6.7,8.7l-5.7,11.7l-5.7,7.7l-13.7,7.3L916,505l-6-2.3l-4.7,2.3l-5.3-4.7
	l-6.3-3.7L891,495v-6.3l-4.5-1.7l-2.8-2.7L880,484v-4.3l-5-4.7h-7.3l-6.7,6.7l-5-0.3l-6.7,2.3l-4,4l-4.7,0.7l-4.7-3.7l-6,1.3
	c0,0-5.7,0-11-5s-6,1.3-10.3-0.7s-6.3,0.3-6.3,0.3L796,479l-3.7-5.7l-5.3-6.7l-7.3-6l-1.3-3.7l-2-2.3l-8-7.3L764,443h-3.7
	c0,0,0.3-2.8-4.3-5.4c-4.7-2.7-8-0.6-8-0.6l-2.3-1.3l-4-6.3l-3.3-7l-3.7-2.3c0,0-1.7-1.7-3.7-6.3c-2-4.7-5,0-5,0l-5.3,6.7l-4,2.3
	L708,429l-2,3.7l-14.3,15.7c0,0-5.7,7.7-6.7,7.7s-7,1.3-7,1.3l-9.7,12.7l-4.3,1.3l-12,9l-2.3-1l-5.3-0.7l-5.3-2.3l-3-5l-5.7-5.7
	L627,463l-3.7-0.3l-8.7-4.3l-7.7-0.7l-3.7,4.7l-6.7,5.7c0,0-7-3.3-7.7-5s-10.3-1.3-10.3-1.3l-5,1.7l-10.3-0.7l-5.7,4l-3-0.3
	l-3.3,4.7c0,0-8.7,3.7-9,3.7s-7.3-3.7-7.3-3.7l-2.7,4l-6.3,3l-3.3-0.7L517,474h-8.7l-8-3.8l-15-1.2l-5.3-2.3l-13.7-6l-15,2
	l-12.7-5.3l-5,0.7l-6.7-4c0,0-7-1.3-8.3-2s-8.7,3.3-8.7,3.3l-4,6.7l-7.3,1l-7.3,6.7c0,0-7,7.7-8.3,6.3s-12.7,9.3-12.7,9.3l-7.7-1
	L356,479c0,0-4.3,4-4.7,2.3c-0.3-1.7-3-1-3-1l-4.7,9.3l-7.3,4L334,499l-3.7,3l-1.7-2l-2.3,5l-4-3l-4.7,3l-4.7-1.7
	c0,0-10.3-0.3-11.7-2.3c-1.3-2-7-4.7-7-4.7l-1.7,3l-7-5l-2.7-3l-4-2l-8.7-9l-11-9l-6-2l-5-5.7l-6.3-5l-3.7-2.3l-3-8.7l-3.7-6
	l-4.7-3.3l-2.3-3.7c0,0-6-9-6.7-11s-4,0-4,0l-5,6.3v6c0,0-4.2,4-5.2,4.7s-7.8,8.7-7.8,8.7l-4.3,4l-3.3-5.3l-2.7-0.7l-3.7-3.7l-7-7
	l-5.3-3.7c0,0-8-4.3-8.3-7s-3.3-9.3-3.3-9.3l-4.7-5l-7-3.7l-6.3-5.3l-1.3-3.7l-4.7-6.3l-5.7-8l-6.7-4.7c0,0-5,1.3-7,1.7
	c-2,0.3-3,7.7-3,7.7L105,400h-3l-1.3,4.2l-5.7,5.2l-3.7-2.3l-4.7,1.7L82,407h-9l-6.7,4l-5.3,5v3.3l-4.8,4l-4.5,7.3l-6.3,6L41,444h-3
	l-4,4.8l-5.3,2.5L27,455l-4.3,3.3L18,461v2.9l-5.7,3.4L9,466H7c0,0-2.3-1-3.3-2.7s-3.7-1-3.7-1"/>
</svg>
