<?xml version="1.0" encoding="utf-8"?>
<!-- Generator: Adobe Illustrator 19.0.0, SVG Export Plug-In . SVG Version: 6.00 Build 0)  -->
<svg version="1.1" xmlns="http://www.w3.org/2000/svg" xmlns:xlink="http://www.w3.org/1999/xlink" x="0px" y="0px"
	 viewBox="0 0 960 212.3" style="enable-background:new 0 0 960 212.3;" xml:space="preserve">
<style type="text/css">
	.st0{fill:#6581A8;}
</style>
<g id="Layer_2">
	<path id="XMLID_1_" class="st0" d="M0.8,43.3c0,0,6.6,6.2,7.2,12.5s2.9,6.5,2.9,6.5v4l3,3.7l5.7,2.3H23l5,3l9.7-1.7l5,3l8.7,3
		l10.3-1.3H67c0,0,3,4,3,5.7s8,5.7,8,5.7l2,3.7h5l2.3,2l7.7-3c0,0,6-5.3,13.7-4.7c7.7,0.7,10.7-0.7,10.7-0.7l8.3,1.3L137,87l3.3,2.7
		L147,90l6,1.3l14.7-2l10,6l8.3,3.3l9.3,5.3l3.3,3.7c0,0,9.7-2.7,20.3,2.3s14.3,1.5,14.3,1.5l9,0.9h3.7l6.3,0.3l3-4l9-3.3l7,2l2,5.2
		l4.3,4.8h3.3l10.7,10h6.3l10.7,5.7l2-4.7l4.7-1.3l2.3-2.7l5.7-3.3l3,1.3l2.2,3.3l6.5-7v-3.3l5-4.2l6-7.8h8l3-3.7l4,1.3l2.3-5
		l7.7-4.3l3.3-7.3l3.3-2l3-6.3l8.7-1c0,0,5.3-2.7,6.7,3.3s5.3,5,5.3,5l5.3-3l2.7-2.7l5,2l5-1.7l2.7,2.3l5.7,3l3,5.1l3.3,3.2l6.3-3.2
		l2.7,4.2l3.7,2.7c0,0,2-3.7,6.3-4c4.3-0.3,9.7-4.3,9.7-4.3l7-0.3l6.3-3l5.3-4c0,0,2.3-4.7,6.7-2.3c4.3,2.3,6.3,2.7,6.3,2.7l6-6.3
		c0,0,1-2.7,4-1.3c3,1.3,7.7-2.7,7.7-2.7l4.3-0.7l7.3,1.3l3.7,7.3l8,6.8l3.3,6.8h3.3l6.3,9.5l4.3-0.5h4.3l2-5.3l2,2.3l3.7,1l2.3,6
		l3,2.7l5,5.3v4l4,4.7l4.3,5.3l3.7,4.3l5.3-1l5.8-4.3l3.8-3.3v-2.7l3.7-0.3l3.3-5.3v-5.3c0,0,3-5,9.3-2.7c6.3,2.3,10,5.3,10,5.3
		l4.7,3.3h8h8l9.3-3.3l4.3-3.3l11-2.3l5,1.3l28.7-18.2l20.3,2.1l1.7-2.3h7.7l3-2l10.7,0.3l2.2-4.7l6.2-1.3v-3.3l5-2.3v-5.7l13-11.7
		l7-9.7c0,0,5.3-11.6,9-9.6s5.7-0.1,5.7-0.1H811l4-4l6.7-12c0,0,6-21.7,15-3.7S844,32,844,32l3.7,5l7,3l4.7,10.3l5.3-9.3l3.3-1l2-3
		l7.3-0.7L882,33c0,0,5.3-7,10.3-6s8.3-3.7,8.3-3.7l3,1.3l4-4.3l5.3,4.3l13.3,9.7l2.2,12l2.5,5v7l3,3.3v12.7l4,7.3l3.5,4.7L945,91
		v5.3l4.3,2L954,97l6,2v113.3H0v-171"/>
</g>
<g id="Layer_3">
</g>
</svg>
