<?xml version="1.0" encoding="utf-8"?>
<!-- Generator: Adobe Illustrator 19.0.0, SVG Export Plug-In . SVG Version: 6.00 Build 0)  -->
<svg version="1.1" id="Layer_1" xmlns="http://www.w3.org/2000/svg" xmlns:xlink="http://www.w3.org/1999/xlink" x="0px" y="0px"
	 viewBox="0 167.3 960 227.7" style="enable-background:new 0 167.3 960 227.7;" xml:space="preserve">
<style type="text/css">
	.st0{fill:#68B8D1;}
</style>
<path id="XMLID_1_" class="st0" d="M-1.8,302.2l1.8-2.1l2.8-3.2c0,0,0-1.3,3-1.4c3-0.2,4.6,0,4.6,0l3.3,1l1.9,1.2l2.2,1.1l2-1.9
	l5.2,1.9l4.8,2.6l6.5-3.3l5.5-1.5l4.3,1.2l4.3-3.6H55l3-5h2l2.8-2H66l4.5-6H73l4.8-6c0,0,1.8-1.3,3.3-1.3s3.3-2.7,3.3-2.7l2.5-1.3
	l2.5,1.2l6.3-2.8H99l7.5-8h2.5l4.5-8.8l3,0.8l2.8-5.5l2.7,1.5l9-11.2c0,0,7.7-10.2,9.2-6.3c1.5,3.9,2.3,0.5,2.3,0.5l10.2-2.2l5.5-7
	l2.3,0.8l2.5-5.7h1c0,0,2.7-6.3,7-1.2c2.2,2.3,3.3,2.8,3.3,2.8s2-3.7,4-0.3c2,3.4,5,11.2,5,11.2l3.3,2.3l1.7-1.2l3,2.2l3.8-4.3
	l2.5,1.5l8.3,1.2l1.3,2.3l1.3,0.5l9.8,15l3.7-1.7c0,0,6.3,5.3,15.5,4.3c3.3,4.5,5,6.3,5,6.3l2.7,1.2l3.8,1.3l1.5,3.2l3,0.8l7,9
	l3,0.8l1.5,3.5l5,0.7l2,2.5l1.5,1.7l5.3,3.7c0,0,4.3-6,9.7,0.2c6,4.2,10.3,6.7,10.3,6.7l4,1.8h6l12.5,2.2l3-0.2l2.8-3.2l6.9-13.7
	l10.7-7.5l1.7-7.8l5.2-0.7c0,0,1.5-4.5,5-4.5c6.7-12.8,6.7-12.8,6.7-12.8l4.7-3l2.8,1.8l1,1.7l1-1.2l1.2-5.3h2.2l3-2.2
	c0,0,6.3-7.2,16.3-0.5c3.8-0.3,3.8-0.1,3.8-0.1l4.7,3.8h9.2l2.7,2.3l3,3.5l2.2,1.3l3.5,8.2l1.7,3.3l2-2.6l6.7,4l3.8-1.7l8.5,8.2
	l2.3,9.2l1.4,6.2l22,18.4v3.7l2.2,3.8l4.2-5.8h1.7l8.2-8.2l1.2-3.7l3.5-2l1.5-4.3l5.3-3.2l5.2-0.5l1.5-1.7l4-0.3l2-7.3l1.7-1.8
	l1-5.7l3.7-3.3h1.3l4.5-5.5l0.8,0.5l6.5-6l1.7-3.2l11-6.2l1.5-2.5l6.7-2.2l5.7,2.3l9-9l7.3-0.7l5.5-4.3l7.3-4.2l4.3-0.7l3.8,4.1
	l12,7.6h4.2l8.5,2.8l6.3,7.5l3.3,2.3l5.5,3.7l7.2,3.7l3.3,5.2l10.5-0.3l8.5,7.2h5.8l5.5,1.8l4.7-4l2.5-2.7l2.8,1.5l0.7-2.8l2.8-1.2
	l8-7.8v-2.8l5.2-5.2l3.3-1.7l1.2-3c0,0,1.5-5.5,5.5-1c5,2.3,5,2.3,5,2.3l2.2,2.3l3.8,2.3l2.8,3.8l1.5,2.3c0,0,1.5-1.7,3.2,0.5
	c5,2.8,5,2.8,5,2.8l2.8,4.3l0.7,4.5l1.8,4.7v2.8l5.3,4l7.5,18.2l10,4.5l2.3,5.3l5.2,3.5l5.7-1.5l8.5,0.3l3.5-1.5l3.5,0.7l1.5-2.5
	l11.2-4c0,0,1.7-1.3,3,0s6.3,5.3,6.3,5.3l7.3-1.3h2.2l6.3,2H845l3.3-1h2.7l2.8-3.3l4.8,0.2l2.7-2.4l2.8,1.6h6.8l22.8-6.5l2.7-5.2
	l4.3-0.8l4.8-3.3c0,0,2.2-2.3,5.5-0.8c5.7-0.5,5.7-0.5,5.7-0.5l2.5,2l4.8,0.3l4.8,3.8h12l3.3-6.2l4.3-0.2l6-2.5l5.3-10.3v165.2H0
	C0,431-2.6,303.1-1.8,302.2z"/>
</svg>
