<?xml version="1.0" encoding="utf-8"?>
<!-- Generator: Adobe Illustrator 19.0.0, SVG Export Plug-In . SVG Version: 6.00 Build 0)  -->
<svg version="1.1" id="Layer_1" xmlns="http://www.w3.org/2000/svg" xmlns:xlink="http://www.w3.org/1999/xlink" x="0px" y="0px"
	 viewBox="0 0 695.3 88" style="enable-background:new 0 0 695.3 88;" xml:space="preserve">
<style type="text/css">
	.st0{fill:#C8C8C8;}
	.st1{fill:#E6E6E6;}
	.st2{fill:none;stroke:#00A14B;stroke-width:0.25;stroke-miterlimit:10;}
	.st3{fill:#D6D6D6;}
	.st4{fill:#68B8D1;}
	.st5{fill:#6581A8;}
	.st6{fill:#736787;}
	.st7{fill:#A4A4A4;}
	.st8{opacity:0.9;fill:#D5D5D5;}
	.st9{fill:#C6C6C6;}
	.st10{fill:#FFFFFF;}
</style>
<g>
	<path class="st0" d="M688.8,0H6.5C2.9,0,0,2.9,0,6.5v28.9h695.3V6.5C695.3,2.9,692.4,0,688.8,0z"/>
	<rect y="35.4" class="st1" width="695.3" height="52.6"/>
	<path class="st0" d="M47.1,68.6c0.5-0.5,5.7-5.9,5.7-5.9c0.3-0.3,0.4-0.6,0.4-1c0-0.4-0.1-0.7-0.4-1c0,0-5.2-5.4-5.7-5.9
		c-0.5-0.5-1.5-0.6-2,0c-0.6,0.5-0.6,1.3,0,2l4.7,4.9l-4.7,4.9c-0.6,0.7-0.6,1.4,0,2C45.6,69.1,46.6,69.1,47.1,68.6z"/>
	<path class="st0" d="M24.3,54.7c-0.5,0.5-5.7,5.9-5.7,5.9c-0.3,0.3-0.4,0.6-0.4,1c0,0.4,0.1,0.7,0.4,1c0,0,5.2,5.4,5.7,5.9
		c0.5,0.5,1.5,0.5,2,0c0.6-0.5,0.6-1.3,0-2l-4.7-4.9l4.7-4.9c0.6-0.7,0.6-1.4,0-2C25.8,54.1,24.8,54.2,24.3,54.7z"/>
	<path class="st2" d="M447.3,81.5"/>
	<path class="st2" d="M410.3,147.3"/>
	<path class="st3" d="M110,35.5c9.6,0,9.2-24.7,17.2-24.7l91.5,0c9.6,0,9.2,24.7,17.2,24.7L110,35.5z"/>
	<path class="st1" d="M1.3,35.6c9.6,0,9.2-24.7,17.2-24.7l91.5,0c9.6,0,9.2,24.7,17.2,24.7L1.3,35.6z"/>
	<path class="st0" d="M85.6,61h-2.7l0-0.2c-0.4-3.8-3.5-6.6-7.3-6.6c-4.1,0-7.4,3.3-7.4,7.4c0,4.1,3.3,7.4,7.4,7.4
		c1.7,0,3.2-0.5,4.5-1.6l0.4-0.3l-1.8-1.9l-0.3,0.2c-0.8,0.6-1.8,0.9-2.8,0.9c-2.6,0-4.7-2.1-4.7-4.7c0-2.6,2.1-4.7,4.7-4.7
		c2.3,0,4.2,1.6,4.7,3.9l0,0.2h-2.9l4.1,4.6L85.6,61z"/>
	<path class="st2" d="M417.5,326.3"/>
	<circle class="st4" cx="627.1" cy="17.5" r="7.3"/>
	<circle class="st5" cx="651.8" cy="17.5" r="7.3"/>
	<circle class="st6" cx="676.7" cy="17.5" r="7.3"/>
	<g>
		<g>
			<path class="st0" d="M678.4,60.1h-15.3c-0.7,0-1.3,0.7-1.3,1.5c0,0.8,0.6,1.5,1.3,1.5h15.3c0.7,0,1.3-0.7,1.3-1.5
				C679.7,60.8,679.1,60.1,678.4,60.1z M663.2,57.1h15.3c0.7,0,1.3-0.7,1.3-1.5c0-0.8-0.6-1.5-1.3-1.5h-15.3c-0.7,0-1.3,0.7-1.3,1.5
				C661.9,56.4,662.5,57.1,663.2,57.1z M678.4,66.1h-15.3c-0.7,0-1.3,0.7-1.3,1.5c0,0.8,0.6,1.5,1.3,1.5h15.3c0.7,0,1.3-0.7,1.3-1.5
				C679.7,66.8,679.1,66.1,678.4,66.1z"/>
		</g>
	</g>
	<g>
		<g>
			<path class="st7" d="M397.5,105.1"/>
		</g>
	</g>
	<g>
	</g>
	<circle class="st8" cx="105.1" cy="24.5" r="4.8"/>
	<circle class="st9" cx="214.5" cy="24.5" r="4.8"/>
	<path class="st10" d="M652.9,75.3h-558c-1,0-1.8-0.8-1.8-1.8V49.7c0-1,0.8-1.8,1.8-1.8h558c1,0,1.8,0.8,1.8,1.8v23.8
		C654.7,74.5,653.9,75.3,652.9,75.3z"/>
	<polygon class="st1" points="640.5,65.3 645.7,69.3 643.5,63.1 648.8,59.3 642.4,59.5 640.5,53.1 638.7,59.5 632.2,59.3 
		637.5,63.1 635.4,69.3 	"/>
</g>
</svg>
