<?xml version="1.0" encoding="utf-8"?>
<!-- Generator: Adobe Illustrator 19.0.0, SVG Export Plug-In . SVG Version: 6.00 Build 0)  -->
<svg version="1.1" xmlns="http://www.w3.org/2000/svg" xmlns:xlink="http://www.w3.org/1999/xlink" x="0px" y="0px"
	 viewBox="0 0 960 421.5" style="enable-background:new 0 0 960 421.5;" xml:space="preserve">
<style type="text/css">
	.st0{fill:#68B8D1;stroke:#68B8D1;stroke-miterlimit:10;}
	.st1{fill:none;stroke:#68B8D1;stroke-miterlimit:10;}
</style>
<g id="base">
</g>
<g id="cutouts">
	<path id="XMLID_64_" class="st0" d="M959.5,183.7c-192,21.7-343.4,49.3-343.4,49.3L611,34.3l-1.5-2.3v-3.3l-8-0.7v1.8l-2,0.3v1.2
		l-18-1.2v-5.5h-4l-3,1.5v3.3L558.6,28l-1.6-2.5h-6.5l-3,1.5v2.5H547c0,0,0,4.9-3.3,213.6c-155,19-273.5,45.6-273.5,45.6l-1.3-86.3
		h-4.5v0.8l-8-0.3v-2.5h-4v2H245h-1h-3.5v1h-0.3c0,0-0.3,18.9-3.5,93.1c-21,4-32.3,9.4-32.3,9.4v-2.8l-18-0.3v2.8l-1.8,0.3
		c0,0-1.3,1.3-1.3,6.3c-2.5,0.3-15,4.8-15,4.8v-52.5h-5.8L161,263l-2,1.5h-7.3c0,0-1.3,35.4-2.5,59.1c-14.3,4.3-17.8,9.4-17.8,9.4
		v-44.8l-1-2.3v-2.5h-13V299l-1.5-1.5h-1l-1.3,1.8l-1.3,36.5l-1.5,2.8h-1.8l-2.3,2H-0.5v81h960v-111l-0.5-1h-4.9l-1.1,1h-1.5v3h-3v3
		h-4v16h-5v-2h-5.9l-1.1,4.8l-2,0.7v-3.5h-2v3l-3.8-2.8l-0.8-2.3h-3.6l-0.4,1h-2.9l-1.6,1.6l-1.9-1.3l-2.6,2.8h-2.9l-2.1-1h-9.5v5
		l-3.1,1.5l-1.9-1v-3.5h-10v2h-6v5h-2v-3h-4v2h-4v-4h-4v-2h-3v2h-4v-2.9l-4.1-2.4l-3.9,2.8v3.5h-7v-4h-9v-2h-3v0.9l-1.5,0.9l-0.8-1
		l-5.6-0.3l-1.8,3.1l-0.8-1l-2.6-0.3l-4.3-3.9l-2.3,1.5l-2,1.8l-4.5-0.3l-0.6-1.3l-5,0.3l-2.3,1.1l-2.1-1.1v-7.9l-2-0.1v-2.5h-7
		v-2.4l-6-0.1v1.5h-7.6l0.1,3h-2.9l-1.5-2l-0.8,1.3l-1.6,0.3l-0.3,9.5h-3.5l-0.5-18h-4.5v8.8l-1.1,0.9l-0.2,9.5l-2.8-1.6v-8.3
		l-3.2,0.1l-0.8-1.6l-1.9,0.3l-1.3,1.4l-3.5,0.1l0.1,6.5h-2.5v3h-1.3l-0.3-13h-3.1l-0.9-2h-7.5l-0.1,1.7l-1.1,0.2l-1.8-1.4l-2,1v6.5
		h-3v-10.8l-1.4-1.9l-2.4,1.5c0,0,0,0-2-1.6c-3.5,3.5-5.5,0.6-5.5,0.6l-6.5-47.6l-5.5,48.3l-2.8-0.1l-0.5,8.6h-1.1l-0.9,3h-1.3
		l-1.3-2L681,325l-0.3-3.1l-4.3,0.1v-2l-11.6,0.1l-4.4-3.4l-3.4,3.1l-1.6,0.1v2.5h-6v-9h-19v-7.8l-2-0.7v-5.7l-10.6-1.7l-0.6-23
		l2.7-2.3L801.3,260c0,0,33.3,1.3,50.3,1.3s16-3.3,16-3.3l-0.3-3l92.2-7C959.5,248,959.5,248,959.5,183.7z M166.2,269.5l-5.8,6.6
		l-5.2-6.6H166.2z M159.8,290.5l-5.5-5.4l6.3-6.5l5,5.3v2l-4.5,4.5H159.8z M166.2,301.6l-5.6,6.1l-6.1-5.7v-1.6l6.1-5.7L166.2,301.6
		z M154.2,271.2l4.9,6.6l-5.3,5.5L154.2,271.2z M153.8,287.9l5.3,5.2l-5.7,5.2L153.8,287.9z M153.2,303l5.3,6v1l-5.5,5.3L153.2,303z
		 M165.5,318l-13,4v-3.8l7.4-7.4l5.6,6.2V318z M166.5,315.3l-5-6.2l5-4.9V315.3z M166.5,298.3l-5-5.3l5-5V298.3z M166.5,282.3
		l-5-5.1l5-5.6V282.3z M182.5,336c0,0-10.2-2-12.3-5.1c0,0-0.6-2.8,10.9-3.3c1.3,0.8,1.4,0.9,1.4,0.9V336z M237.5,320.8l-1.5,0.7
		h-6.5v1.7l-2,0.8v6.7l-1.5,3l-1.5-1.7v-15c11.3-2.3,13-2,13-2V320.8z M255.5,204.5h4v4h-4V204.5z M262.5,238l-7,7.5H253l-7.5-8.7
		V234l7.5-8.5h2l7.5,9.1V238z M262.8,241.1l1.5,2l0.4,14.9l-8.1-8.3V247L262.8,241.1z M255,251.5l8.5,8.9v2.6l-8.3,8.5H253l-7.5-8.1
		V261l7.5-9.5H255z M257.5,273.3l7.9-7.9l-0.3,18.4l-7.6-7.9V273.3z M264.4,232.5l-6.9-8.5v-1.6l7.4-7.6L264.4,232.5z M262.5,213.3
		l-7.5,7.2h-1.5l-7.2-8.3l16.2-0.3V213.3z M249.5,204.5h4v4h-4V204.5z M244.5,204.5h4v4h-4V204.5z M244.5,215l7,9.3l-7,7.8V215z
		 M243.5,240.6l1.8-0.7l5.3,7.2v2.8l-7,8.3V240.6z M242.5,267.9l1.1-2.5l6.9,7.5v2.8l-8,9.3V267.9z M242.5,291l10.5-13.5h1
		l10.1,12.1l-21.6,5.5V291z M250.5,326.2c-3.7-0.3-8,2.8-8,2.8v-5.5h-1V314l9,9C250.5,323,250.5,323.3,250.5,326.2z M252.7,321.5
		l-7.2-7.5v-1.5h15.1l0.9-1.4l2-0.1v1l-9.5,9.5H252.7z M265.5,328.5H263l-1.5,1.5l-5-4.2l0.1-2.1l7.9-8.7v3l1,1.1V328.5z
		 M265.5,208.5h-4v-4h4V208.5z M381.5,324.5h-2v-11h-16v2h-2v13h-2V324l-2-2v-2.5h-13v3h-3v2h-4v-2h-5v2.8l-2.5,2.2h-3.1l-1.9,2
		h-5.5v4h-2v-3h-5v2h-6v2h-9v-4H295l-4-2h-20.5V308c7-3,20-0.5,20-0.5l2.2-1c0,0,0,0,0.2-1.7c17.3-3.5,88.7-11.8,88.7-11.8V324.5z
		 M543.5,318.5h-2v-3h-3v-3h-4v-17h-4v-2h-18v29h-2v-17h-14v-2h-8v-10h-9v-3h-11v3h-9v14h-7.4l-2.6-2.5v-1.5h-16l-3,2.5v2.5h-2v-9
		h-3v-3H408h-0.5v4h-1v16h-2v-3h-3V291c20-3,142-12,142-12V318.5z M603.5,216.3c0,0-15.5-17.3-16.8-19.5c-1.3-2.2,0-5.5,0-5.5
		l14.3-17.2l1.5-0.8L603.5,216.3z M581.3,140.8l17.2,21.2v6.5c0,0-15.6,16.7-16.9,18.3c-1.3,1.7-3.1,0-3.1,0l-18-21.8v-6
		c0,0,14.8-16.3,16.7-18.2C579,139,581.3,140.8,581.3,140.8z M561.5,106v-4l4.3-6c0,0,8.7-10,10.7-12.5s4.2,0,4.2,0l15.8,19.5v6.2
		c0,0-12.1,13.8-14.6,16.5c-2.5,2.7-4.6,0-4.6,0L561.5,106z M600.5,117.3l1.2,37.7l-15.2-19v-6c0,0,9.7-10.5,12-13.7
		S600.5,117.3,600.5,117.3z M599.3,95.2L585.5,78v-5.2l13.2-14.7L599.3,95.2z M592.5,36v-0.8l5,0.8v6.3l-5-0.3V36z M582.5,35v-0.8
		l5,0.8v6.3l-5-0.3V35z M594.5,50v1v2.3c0,0-11,13.2-13,15.3c-2,2.2-4.4,0-4.4,0L563.5,52v-4L594.5,50z M569.5,34v-0.8l5,0.8v6.3
		l-5-0.3V34z M558.5,33.5l1.2-0.9l4.8,0.5v6l-6-0.7V33.5z M558.5,57l14,17v4.7l-14,15.3V57z M557.5,113l15,18v5.5l-15,16.5V113z
		 M556.5,172c0,0,15.3,17.5,16.5,19.2c1.2,1.7,0,6.2,0,6.2L556.5,216V172z M572.5,302.7l-5,4.3v-2.5h-2v-6h-4v-2h-3V285l14,13V302.7
		z M599.5,279l-3,3v-2.5h-11v2.7l-6-0.2v12.3l-19.3-16.8c11.3-1.3,39.3-1.5,39.3-1.5V279z M556.5,241v-10l3.8-8.8l17.4-20.8
		c0,0,2-2.8,4,0s17.8,22.2,17.8,22.2l5,11.2L556.5,241z"/>
</g>
<g id="cables">
	<path id="XMLID_3_" class="st1" d="M102.5,343c0,0,10.5-14.1,11.2-41.8"/>
	<path id="XMLID_4_" class="st1" d="M128.2,311.8c0,0,3.5,22.7,15.3,27.2"/>
	<path id="XMLID_5_" class="st1" d="M124.8,337.3c0,0,18.3-5.8,28.6-67.8c0,0,10.4,49.9,35.2,41.5"/>
	<path id="XMLID_6_" class="st1" d="M135.5,337.3c0,0,13.5,19.8,31-68.5"/>
	<path id="XMLID_7_" class="st1" d="M167.8,268.8c0,0,20,60.3,34.3,38"/>
	<path id="XMLID_1_" class="st1" d="M187.9,311.2c0,0,28.6-1.9,54.6-104.7c0,0,90.5,232.5,308.5-167.5c100,65.6,347,130,611,94"/>
	<path id="XMLID_8_" class="st1" d="M1058,142.3C812,147.5,634,55,604.5,36.8c0,0-214.1,376.2-335.3,178.2"/>
	<path id="XMLID_10_" class="st1" d="M264.1,211c-7.6,36-40.5,110-56.5,100"/>
</g>
</svg>
